<?xml version="1.0" encoding="UTF-8"?>
<svg id="Layer_2" data-name="Layer 2" xmlns="http://www.w3.org/2000/svg" viewBox="0 0 430.43 436.53">
  <defs>
    <style>
      .cls-1 {
        fill: #e1302f;
        stroke-width: 0px;
      }
    </style>
  </defs>
  <g id="Layer_1-2" data-name="Layer 1">
    <g>
      <path class="cls-1" d="m259.93,141.74c0,15.41,0,30.81,0,46.22,0,9.82,6.11,15.89,16.03,15.89,46.1,0,92.19,0,138.29-.01,3.14,0,6.18.23,8.95,1.9,4.61,2.77,7.1,6.89,7.14,12.2.11,14.48.08,28.97.02,43.45-.03,8.01-6.39,14.16-14.51,14.17-30,.04-60.01.04-90.01.09-9.81.02-16.62,7.84-15.13,17.32.54,3.46,2.46,6.13,4.89,8.55,25.26,25.21,50.5,50.43,75.75,75.65,7.49,7.49,7.51,15.58.05,23.03-9.42,9.41-18.84,18.83-28.27,28.24-6.97,6.96-15.39,6.97-22.36.01-50.15-50.09-100.28-100.19-150.48-150.24-1.76-1.76-2.39-3.52-2.39-5.95.05-84.56.11-169.12-.06-253.68-.02-8.49,3.78-15.98,15.26-17.09,13.86-1.34,27.73-2.01,41.63-.97,25.66,1.92,50.36,7.84,73.84,18.47,43.14,19.54,76.65,49.8,100.53,90.65,4.64,7.93,1.92,17.26-6.01,20.81-1.85.83-4.02,1.34-6.04,1.35-17.43.1-34.87.08-52.3.05-4.75,0-8.5-2.09-11.49-5.73-12.97-15.81-28.46-28.55-46.69-37.84-5.43-2.76-11.06-5.2-16.77-7.32-10.09-3.75-19.86,3.3-19.87,14.07,0,15.57,0,31.15,0,46.72Z"/>
      <path class="cls-1" d="m39.98,314.69c8.21,0,16.42.06,24.63-.02,5.43-.05,9.61,2.03,12.97,6.32,15.25,19.42,33.91,34.35,57.34,42.87,3.13,1.14,6.36,2.05,9.58,2.94,7.16,1.97,11.29,7.22,11.3,14.65.02,13.48.04,26.95,0,40.43-.03,9.83-8.43,16.48-18.02,14.21-38.31-9.05-71.95-26.72-100.23-54.29-13.75-13.4-25.39-28.46-35.25-44.9-6.07-10.12.49-22,12.28-22.18,8.46-.13,16.93-.03,25.39-.03Z"/>
    </g>
  </g>
</svg>